HIERARCHY
ROOT Hips
{
	OFFSET 0.00000 0.00000 0.00000
	CHANNELS 6 Xposition Yposition Zposition Zrotation Yrotation Xrotation 
	JOINT LHipJoint
	{
		OFFSET 0 0 0
		CHANNELS 3 Zrotation Yrotation Xrotation
		JOINT LeftHip
		{
			OFFSET 1.84395 -1.68683 0.74144
			CHANNELS 3 Zrotation Yrotation Xrotation
			JOINT LeftKnee
			{
				OFFSET 2.27037 -6.23779 0.00000
				CHANNELS 3 Zrotation Yrotation Xrotation
				JOINT LeftAnkle
				{
					OFFSET 2.56918 -7.05877 0.00000
					CHANNELS 3 Zrotation Yrotation Xrotation
					JOINT LeftToe
					{
						OFFSET 0.22276 -0.61202 1.71784
						CHANNELS 3 Zrotation Yrotation Xrotation
						End Site
						{
							OFFSET 0.00000 -0.00000 0.91613
						}
					}
				}
			}
		}
	}
	JOINT RHipJoint
	{
		OFFSET 0 0 0
		CHANNELS 3 Zrotation Yrotation Xrotation
		JOINT RightHip
		{
			OFFSET -1.76833 -1.68684 0.74144
			CHANNELS 3 Zrotation Yrotation Xrotation
			JOINT RightKnee
			{
				OFFSET -2.49360 -6.85110 0.00000
				CHANNELS 3 Zrotation Yrotation Xrotation
				JOINT RightAnkle
				{
					OFFSET -2.55538 -7.02085 0.00000
					CHANNELS 3 Zrotation Yrotation Xrotation
					JOINT RightToe
					{
						OFFSET -0.21516 -0.59115 1.68050
						CHANNELS 3 Zrotation Yrotation Xrotation
						End Site
						{
							OFFSET -0.00000 -0.00000 0.89604
						}
					}
				}
			}
		}
	}
	JOINT lowerback
	{
		OFFSET 0 0 0
		CHANNELS 3 Zrotation Yrotation Xrotation
		JOINT Chest
		{
			OFFSET 0.06382 1.72312 -0.19613
			CHANNELS 3 Zrotation Yrotation Xrotation
			JOINT Chest2
			{
				OFFSET -0.00055 1.73507 0.23859
				CHANNELS 3 Zrotation Yrotation Xrotation
				JOINT lowerneck
				{
					OFFSET 0 0 0
					CHANNELS 3 Zrotation Yrotation Xrotation
					JOINT Neck
					{
						OFFSET 0.03638 1.65562 0.09633
						CHANNELS 3 Zrotation Yrotation Xrotation
						JOINT Head
						{
							OFFSET 0.06388 1.62807 -0.32386
							CHANNELS 3 Zrotation Yrotation Xrotation
							End Site
							{
								OFFSET 0.00995 1.67644 -0.12021
							}
						}
					}
				}
				JOINT LeftCollar
				{
					OFFSET 0 0 0
					CHANNELS 3 Zrotation Yrotation Xrotation
					JOINT LeftShoulder
					{
						OFFSET 3.09648 1.42991 0.28122
CHANNELS 3 Zrotation Xrotation Yrotation
						JOINT LeftElbow
						{
OFFSET 0 -5.118780 -0.000000
CHANNELS 3 Zrotation Xrotation Yrotation
							JOINT LeftWrist
							{
OFFSET 0 -3.599710 0.000000
CHANNELS 3 Zrotation Xrotation Yrotation
								JOINT lhand
								{
									OFFSET 0 0 0
CHANNELS 3 Zrotation Xrotation Yrotation
									JOINT LFingers
									{
OFFSET 0 -0.628770 0.000000
CHANNELS 3 Zrotation Xrotation Yrotation
										End Site
										{
OFFSET 0 -0.506930 0.000000
										}
									}
								}
								JOINT LThumb
								{
OFFSET 0 0.000000 0.000000
CHANNELS 3 Zrotation Xrotation Yrotation
									End Site
									{
OFFSET 0 -0.514670 0.514670
									}
								}
							}
						}
					}
				}
				JOINT RightCollar
				{
					OFFSET 0 0 0
					CHANNELS 3 Zrotation Yrotation Xrotation
					JOINT RightShoulder
					{
						OFFSET -3.33565 1.14597 0.05047
CHANNELS 3 Zrotation Xrotation Yrotation
						JOINT RightElbow
						{
OFFSET 0 -5.490200 0.000000
CHANNELS 3 Zrotation Xrotation Yrotation
							JOINT RightWrist
							{
OFFSET 0 -3.206590 -0.000000
CHANNELS 3 Zrotation Xrotation Yrotation
								JOINT rhand
								{
									OFFSET 0 0 0
CHANNELS 3 Zrotation Xrotation Yrotation
									JOINT RFingers
									{
OFFSET 0 -0.691880 0.000000
CHANNELS 3 Zrotation Xrotation Yrotation
										End Site
										{
OFFSET 0 -0.557810 0.000000
										}
									}
								}
								JOINT RThumb
								{
OFFSET 0 0.000000 0.000000
CHANNELS 3 Zrotation Xrotation Yrotation
									End Site
									{
OFFSET 0 -0.566330 0.566330
									}
								}
							}
						}
					}
				}
			}
		}
	}
}
MOTION
Frames: 4
Frame Time: 0.008333333333333333
2.669310 17.627127 8.725645 -9.843823 -6.258908 19.402780 0.000000 0.000000 0.000000 -18.109989 -46.305107 15.093275 0.203556 -2.904707 -8.013655 1.231346 40.045344 -58.050045 4.365752 12.630596 38.002873 0.000000 0.000000 0.000000 11.567341 35.030551 -8.074148 -0.024200 -1.004510 2.761150 0.934653 -21.651431 -22.723422 -0.286073 -3.439400 9.504552 -0.808348 1.109596 6.995892 1.326802 1.507992 -4.243971 1.642286 0.827250 -8.468230 4.682584 0.099362 -18.987216 6.726763 -3.611397 28.202106 1.189828 -0.194995 12.672670 0.000000 0.000000 0.000000 19.196896 -0.063443 -60.286379 68.461982 -58.171096 41.462217 19.346756 -60.675470 -27.223457 0.000000 0.000000 0.000000 -7.125000 0.000000 0.000000 -12.248654 58.159355 3.982708 0.000000 0.000000 0.000000 -0.247193 -12.993642 92.215911 -83.928007 -59.855724 -54.744216 19.090175 -69.267490 62.738580 0.000000 0.000000 0.000000 7.125000 0.000000 0.000000 79.795604 -66.432724 104.230602
2.688831 17.606008 8.829518 -9.335086 -6.924571 17.468526 0.000000 0.000000 0.000000 -20.624758 -45.545302 16.766228 0.140064 -2.410993 -6.642999 -1.850607 43.739156 -55.414604 3.143905 10.920729 32.017024 0.000000 0.000000 0.000000 12.826745 33.396118 -5.536613 -0.023501 -0.989653 2.720344 0.777554 -20.814605 -22.735453 -0.217774 -3.004134 8.290192 -1.046652 1.782158 5.914319 0.363785 2.322056 -4.716955 0.666457 1.210258 -8.343274 3.690158 -0.508744 -18.456572 8.323881 -4.774957 29.650421 1.824859 -0.550254 13.268502 0.000000 0.000000 0.000000 17.536185 7.636862 -60.683866 72.944672 -58.870248 45.285815 20.358702 -60.260431 -26.950722 0.000000 0.000000 0.000000 -7.125000 0.000000 0.000000 -11.014761 58.111624 3.561500 0.000000 0.000000 0.000000 -2.500000 -8.294563 92.364053 -91.376220 -59.991176 -61.191784 27.745412 -78.992370 63.799917 0.000000 0.000000 0.000000 7.125000 0.000000 0.000000 81.993205 -64.619703 109.105521
2.703637 17.580728 8.892309 -8.711455 -7.599347 15.679363 0.000000 0.000000 0.000000 -22.660819 -44.771372 17.914245 0.092585 -1.962445 -5.401864 -5.188291 46.829648 -52.189037 2.124312 9.118663 26.168571 0.000000 0.000000 0.000000 13.584207 32.578675 -2.970843 -0.018542 -0.880015 2.418619 0.558016 -20.165280 -23.776621 -0.240470 -3.155618 8.712332 -1.455302 2.288862 5.665450 -0.454531 2.903469 -4.964842 -0.040179 1.492129 -8.457216 2.998070 -0.801314 -17.838926 9.898221 -5.414195 29.435034 2.452607 -0.721878 13.159655 0.000000 0.000000 0.000000 14.965439 13.569727 -59.401497 77.307848 -59.381538 49.031229 22.453833 -59.210915 -26.563438 0.000000 0.000000 0.000000 -7.125000 0.000000 0.000000 -8.552332 58.186996 2.774989 0.000000 0.000000 0.000000 -5.420482 -7.854854 93.880423 -96.128305 -59.856909 -65.304678 26.926667 -82.138551 64.904104 0.000000 0.000000 0.000000 7.125000 0.000000 0.000000 84.662661 -65.237332 111.439567
2.711675 17.558519 8.895833 -8.459140 -7.886751 14.724117 0.000000 0.000000 0.000000 -22.693645 -42.896973 17.226221 0.077967 -1.801094 -4.956304 -6.668016 47.085593 -48.327107 1.593850 7.962798 22.601388 0.000000 0.000000 0.000000 13.951072 31.431205 -2.512721 -0.026739 -1.054542 2.898801 0.419438 -19.506567 -23.995413 -0.335408 -3.721681 10.295064 -1.765169 2.538074 5.938570 -0.810224 3.171294 -5.283380 -0.302436 1.629284 -8.967113 2.514972 -0.638203 -16.713788 11.207950 -5.151291 27.838611 3.024031 -0.594106 12.318562 0.000000 0.000000 0.000000 12.908277 15.752541 -58.975829 82.746236 -59.797036 53.722443 27.133959 -57.169922 -23.204588 0.000000 0.000000 0.000000 -7.125000 0.000000 0.000000 -2.169814 55.683643 0.582072 0.000000 0.000000 0.000000 -7.738333 -7.758401 92.749224 -99.494325 -59.656053 -68.212781 32.268184 -87.185780 63.738986 0.000000 0.000000 0.000000 7.125000 0.000000 0.000000 82.137666 -63.518548 110.678569
